<svg width="current" height="current" viewBox="0 0 57 17" xmlns="http://www.w3.org/2000/svg">
<path  fill="current" d="M0.82 16V1.2H5.7C8.74 1.2 11.06 2.1 11.06 4.86C11.06 6.22 10.32 7.6 9.06 8.06V8.14C10.64 8.52 11.82 9.66 11.82 11.64C11.82 14.62 9.34 16 6.1 16H0.82ZM3.78 7.22H5.5C7.38 7.22 8.18 6.48 8.18 5.28C8.18 3.98 7.32 3.48 5.54 3.48H3.78V7.22ZM3.78 13.72H5.84C7.84 13.72 8.94 13 8.94 11.48C8.94 10.04 7.88 9.42 5.84 9.42H3.78V13.72ZM18.8733 16.28C16.0533 16.28 13.4933 14.12 13.4933 10.42C13.4933 6.7 16.0533 4.54 18.8733 4.54C21.6733 4.54 24.2333 6.7 24.2333 10.42C24.2333 14.12 21.6733 16.28 18.8733 16.28ZM18.8733 13.9C20.3933 13.9 21.2333 12.52 21.2333 10.42C21.2333 8.3 20.3933 6.94 18.8733 6.94C17.3333 6.94 16.4933 8.3 16.4933 10.42C16.4933 12.52 17.3333 13.9 18.8733 13.9ZM29.0622 16.28C27.0622 16.28 25.7622 14.88 25.7622 12.96C25.7622 10.58 27.7022 9.32 32.2022 8.82C32.1422 7.72 31.6822 6.9 30.3022 6.9C29.2622 6.9 28.2422 7.34 27.2222 7.96L26.1622 6C27.4822 5.2 29.0622 4.54 30.8422 4.54C33.6822 4.54 35.1422 6.22 35.1422 9.48V16H32.7422L32.5222 14.82H32.4422C31.4622 15.66 30.3422 16.28 29.0622 16.28ZM30.0222 13.98C30.8622 13.98 31.4822 13.6 32.2022 12.9V10.64C29.4622 10.98 28.5622 11.72 28.5622 12.74C28.5622 13.6 29.1622 13.98 30.0222 13.98ZM38.1386 16V4.82H40.5186L40.7586 6.8H40.8186C41.6186 5.32 42.8386 4.54 43.9986 4.54C44.5986 4.54 44.9586 4.62 45.2986 4.78L44.7986 7.3C44.3986 7.2 44.0986 7.12 43.6186 7.12C42.7586 7.12 41.6986 7.72 41.0786 9.34V16H38.1386ZM50.477 16.28C47.677 16.28 45.877 14.1 45.877 10.42C45.877 6.76 48.177 4.54 50.577 4.54C51.837 4.54 52.617 5 53.437 5.74L53.317 3.98V0.059999H56.257V16H53.857L53.637 14.84H53.577C52.757 15.66 51.637 16.28 50.477 16.28ZM51.217 13.86C52.017 13.86 52.677 13.54 53.317 12.72V7.8C52.657 7.18 51.937 6.94 51.237 6.94C49.977 6.94 48.897 8.14 48.897 10.38C48.897 12.72 49.757 13.86 51.217 13.86Z"/>
</svg>
