<svg width="current" height="current" viewBox="0 0 14 14" fill="current" xmlns="http://www.w3.org/2000/svg">
<path  fill="current" fill-rule="evenodd" clip-rule="evenodd" d="M2.52789 2.52776V11.4722H5.639V2.52776H2.52789ZM2.33344 1.55554C1.90389 1.55554 1.55566 1.90377 1.55566 2.33332V11.6667C1.55566 12.0962 1.90389 12.4444 2.33344 12.4444H5.83344C6.263 12.4444 6.61122 12.0962 6.61122 11.6667V2.33332C6.61122 1.90376 6.263 1.55554 5.83344 1.55554H2.33344Z"/>
<path  fill="current" fill-rule="evenodd" clip-rule="evenodd" d="M7.97222 2.52776V4.08332H11.4722V2.52776H7.97222ZM7.77778 1.55554C7.34822 1.55554 7 1.90376 7 2.33332V4.27776C7 4.70732 7.34822 5.05554 7.77778 5.05554H11.6667C12.0962 5.05554 12.4444 4.70732 12.4444 4.27776V2.33332C12.4444 1.90376 12.0962 1.55554 11.6667 1.55554H7.77778Z" />
<path  fill="current" fill-rule="evenodd" clip-rule="evenodd" d="M7.97222 6.41668V7.58335H11.4722V6.41668H7.97222ZM7.77778 5.44446C7.34822 5.44446 7 5.79268 7 6.22224V7.77779C7 8.20735 7.34822 8.55557 7.77778 8.55557H11.6667C12.0962 8.55557 12.4444 8.20735 12.4444 7.77779V6.22224C12.4444 5.79268 12.0962 5.44446 11.6667 5.44446H7.77778Z" />
<path  fill="current" fill-rule="evenodd" clip-rule="evenodd" d="M7.97222 9.91668V11.4722H11.4722V9.91668H7.97222ZM7.77778 8.94446C7.34822 8.94446 7 9.29268 7 9.72224V11.6667C7 12.0962 7.34822 12.4445 7.77778 12.4445H11.6667C12.0962 12.4445 12.4444 12.0962 12.4444 11.6667V9.72224C12.4444 9.29268 12.0962 8.94446 11.6667 8.94446H7.77778Z" />
</svg>
