<svg width="current" height="current" viewBox="0 0 14.29 14.29" fill="none" xmlns="http://www.w3.org/2000/svg">
<path d="M15.0003 7.99863H14.0003C13.9217 7.99863 13.8574 8.06292 13.8574 8.14149V13.8558H2.14314V2.14149H7.85742C7.93599 2.14149 8.00028 2.0772 8.00028 1.99863V0.998631C8.00028 0.92006 7.93599 0.855774 7.85742 0.855774H1.42885C1.11278 0.855774 0.857422 1.11113 0.857422 1.4272V14.5701C0.857422 14.8861 1.11278 15.1415 1.42885 15.1415H14.5717C14.8878 15.1415 15.1431 14.8861 15.1431 14.5701V8.14149C15.1431 8.06292 15.0789 7.99863 15.0003 7.99863Z" fill="black" fill-opacity="0.8"/>
<path d="M5.21266 8.40756L5.17873 10.5308C5.17695 10.6897 5.30552 10.8201 5.46445 10.8201H5.47159L7.57873 10.7683C7.61445 10.7665 7.65016 10.7522 7.67516 10.7272L15.1019 3.31649C15.1573 3.26113 15.1573 3.17006 15.1019 3.1147L12.8823 0.896845C12.8537 0.868274 12.818 0.855774 12.7805 0.855774C12.743 0.855774 12.7073 0.87006 12.6787 0.896845L5.25373 8.30756C5.22794 8.33453 5.21327 8.37024 5.21266 8.40756ZM6.34659 8.82899L12.7805 2.40935L13.5877 3.2147L7.15016 9.63792L6.33409 9.65756L6.34659 8.82899Z" fill="black" fill-opacity="0.8"/>
</svg>
