<svg width="current" height="current" viewBox="0 0 106 26" fill="none" xmlns="http://www.w3.org/2000/svg">
<g clip-path="url(#clip0_19_10988)">
<path fill-rule="evenodd" clip-rule="evenodd" d="M9.38973 16.3003L5.76343 18.2161L13.0161 22.0477L20.2688 18.2161L16.6425 16.3003L13.0161 18.2161L9.38973 16.3003Z" fill="#262626"/>
<path d="M10.6899 15.753L13.0162 14.5214L15.3425 15.753L13.0162 16.9846L10.6899 15.753Z" fill="#262626"/>
<path d="M4.80073 17.1559C4.08725 15.7483 3.74817 14.1807 3.81612 12.6041C3.88407 11.0275 4.35677 9.49489 5.18871 8.15389C6.02065 6.8129 7.18381 5.70866 8.56621 4.94749C9.9486 4.18632 11.5037 3.79386 13.0817 3.80788C14.6597 3.82191 16.2076 4.24195 17.5762 5.02757C18.9449 5.81319 20.0882 6.93792 20.8962 8.29349C21.7042 9.64906 22.1496 11.1898 22.1895 12.7674C22.2294 14.345 21.8625 15.9063 21.1241 17.301L16.0605 14.6202C16.3387 14.0948 16.4769 13.5066 16.4619 12.9123C16.4468 12.318 16.279 11.7376 15.9747 11.2269C15.6703 10.7163 15.2396 10.2926 14.724 9.99661C14.2084 9.70065 13.6253 9.54241 13.0308 9.53713C12.4363 9.53185 11.8505 9.67969 11.3297 9.96644C10.8089 10.2532 10.3708 10.6692 10.0574 11.1743C9.74395 11.6795 9.56588 12.2569 9.54028 12.8508C9.51468 13.4448 9.64242 14.0353 9.9112 14.5656L4.80073 17.1559Z" fill="#262626"/>
<path d="M36.0298 12.7815V13.2249C36.0298 13.936 35.9326 14.5742 35.7384 15.1397C35.5441 15.7052 35.27 16.1871 34.916 16.5855C34.5621 16.9796 34.1389 17.2816 33.6468 17.4914C33.159 17.7013 32.6172 17.8063 32.0215 17.8063C31.4301 17.8063 30.8883 17.7013 30.3961 17.4914C29.9083 17.2816 29.4852 16.9796 29.1269 16.5855C28.7686 16.1871 28.4902 15.7052 28.2916 15.1397C28.0973 14.5742 28.0001 13.936 28.0001 13.2249V12.7815C28.0001 12.0662 28.0973 11.4279 28.2916 10.8667C28.4858 10.3013 28.7599 9.81938 29.114 9.421C29.4723 9.02262 29.8953 8.71848 30.3831 8.50857C30.8753 8.29867 31.417 8.19373 32.0085 8.19373C32.6043 8.19373 33.1461 8.29867 33.6339 8.50857C34.126 8.71848 34.549 9.02262 34.9031 9.421C35.2614 9.81938 35.5377 10.3013 35.732 10.8667C35.9305 11.4279 36.0298 12.0662 36.0298 12.7815ZM34.0677 13.2249V12.7687C34.0677 12.2718 34.0224 11.8349 33.9317 11.4579C33.8411 11.0809 33.7072 10.7639 33.5303 10.5069C33.3533 10.2499 33.1374 10.0571 32.8827 9.92861C32.628 9.79582 32.3366 9.72942 32.0085 9.72942C31.6804 9.72942 31.389 9.79582 31.1344 9.92861C30.884 10.0571 30.6703 10.2499 30.4932 10.5069C30.3206 10.7639 30.1889 11.0809 30.0982 11.4579C30.0075 11.8349 29.9622 12.2718 29.9622 12.7687V13.2249C29.9622 13.7175 30.0075 14.1545 30.0982 14.5357C30.1889 14.9126 30.3227 15.2318 30.4997 15.4931C30.6767 15.7502 30.8925 15.945 31.1473 16.0778C31.402 16.2107 31.6934 16.2771 32.0215 16.2771C32.3496 16.2771 32.6409 16.2107 32.8957 16.0778C33.1503 15.945 33.3641 15.7502 33.5367 15.4931C33.7094 15.2318 33.8411 14.9126 33.9317 14.5357C34.0224 14.1545 34.0677 13.7175 34.0677 13.2249ZM45.102 8.32224V17.6778H43.1594L39.3712 11.4065V17.6778H37.4285V8.32224H39.3712L43.1659 14.6V8.32224H45.102ZM53.9606 8.32224V17.6778H52.0243V8.32224H53.9606ZM56.8616 8.32224V9.83223H49.1687V8.32224H56.8616ZM64.2566 12.1326V13.6361H59.3353V12.1326H64.2566ZM59.9115 8.32224V17.6778H57.9689V8.32224H59.9115ZM65.6424 8.32224V17.6778H63.7063V8.32224H65.6424ZM73.6591 16.1742V17.6778H68.6406V16.1742H73.6591ZM69.2752 8.32224V17.6778H67.3325V8.32224H69.2752ZM73.0051 12.1326V13.5976H68.6406V12.1326H73.0051ZM73.6526 8.32224V9.83223H68.6406V8.32224H73.6526ZM78.982 8.32224H80.6267L83.0485 15.1911L85.4702 8.32224H87.1156L83.7088 17.6778H82.3882L78.982 8.32224ZM78.0949 8.32224H79.7335L80.0307 15.0177V17.6778H78.0949V8.32224ZM86.3643 8.32224H88.0088V17.6778H86.0662V15.0177L86.3643 8.32224ZM93.6625 9.92219L91.098 17.6778H89.0323L92.5355 8.32224H93.8498L93.6625 9.92219ZM95.7924 17.6778L93.2217 9.92219L93.0146 8.32224H94.3424L97.8643 17.6778H95.7924ZM95.6755 14.1952V15.7052H90.6964V14.1952H95.6755ZM102.411 14.343H100.008V12.8394H102.411C102.782 12.8394 103.084 12.7794 103.317 12.6595C103.55 12.5352 103.721 12.3639 103.829 12.1454C103.936 11.927 103.991 11.6806 103.991 11.4065C103.991 11.128 103.936 10.8689 103.829 10.629C103.721 10.3891 103.55 10.1963 103.317 10.0507C103.084 9.90505 102.782 9.83223 102.411 9.83223H100.681V17.6778H98.7388V8.32224H102.411C103.149 8.32224 103.781 8.45503 104.308 8.72062C104.839 8.98192 105.245 9.34389 105.525 9.80653C105.806 10.2692 105.946 10.7982 105.946 11.3936C105.946 11.9976 105.806 12.5202 105.525 12.9615C105.245 13.4027 104.839 13.7432 104.308 13.9831C103.781 14.223 103.149 14.343 102.411 14.343Z" fill="#262626"/>
</g>
<defs>
<clipPath id="clip0_19_10988">
<rect width="106" height="26.0001" fill="white"/>
</clipPath>
</defs>
</svg>
