<svg width="current" height="current" viewBox="0 0 236 29" fill="none" xmlns="http://www.w3.org/2000/svg">
<path d="M24.3117 13.8409V15.1785C24.3117 17.3238 24.0176 19.2493 23.4294 20.9552C22.8412 22.6611 22.0112 24.115 20.9394 25.3168C19.8676 26.5058 18.5867 27.4169 17.0966 28.0501C15.6196 28.6834 13.9792 29 12.1755 29C10.3848 29 8.74437 28.6834 7.2543 28.0501C5.7773 27.4169 4.49636 26.5058 3.41148 25.3168C2.3266 24.115 1.48354 22.6611 0.88228 20.9552C0.294093 19.2493 0 17.3238 0 15.1785V13.8409C0 11.6827 0.294093 9.75713 0.88228 8.06417C1.47047 6.35829 2.30046 4.90441 3.37227 3.70254C4.45715 2.50067 5.73809 1.58311 7.21509 0.949866C8.70516 0.316622 10.3455 0 12.1362 0C13.94 0 15.5804 0.316622 17.0574 0.949866C18.5475 1.58311 19.8284 2.50067 20.9002 3.70254C21.9851 4.90441 22.8216 6.35829 23.4098 8.06417C24.0111 9.75713 24.3117 11.6827 24.3117 13.8409ZM18.371 15.1785V13.8021C18.371 12.303 18.2338 10.9848 17.9593 9.84759C17.6848 8.71034 17.2796 7.75401 16.7437 6.97861C16.2078 6.20321 15.5543 5.62166 14.7831 5.23396C14.0119 4.83333 13.1296 4.63302 12.1362 4.63302C11.1429 4.63302 10.2606 4.83333 9.48941 5.23396C8.7313 5.62166 8.0843 6.20321 7.54839 6.97861C7.02556 7.75401 6.6269 8.71034 6.35241 9.84759C6.07793 10.9848 5.94068 12.303 5.94068 13.8021V15.1785C5.94068 16.6647 6.07793 17.9828 6.35241 19.133C6.6269 20.2703 7.0321 21.2331 7.568 22.0214C8.1039 22.7968 8.75744 23.3848 9.52862 23.7854C10.2998 24.1861 11.1821 24.3864 12.1755 24.3864C13.1688 24.3864 14.0511 24.1861 14.8223 23.7854C15.5935 23.3848 16.2405 22.7968 16.7633 22.0214C17.2861 21.2331 17.6848 20.2703 17.9593 19.133C18.2338 17.9828 18.371 16.6647 18.371 15.1785Z" fill="black" fill-opacity="0.8"/>
<path d="M51.78 0.387701V28.6123H45.8981L34.4285 9.69251V28.6123H28.5466V0.387701H34.4285L45.9178 19.3269V0.387701H51.78Z" fill="black" fill-opacity="0.8"/>
<path d="M78.6013 0.387701V28.6123H72.7391V0.387701H78.6013ZM87.3849 0.387701V4.94318H64.0927V0.387701H87.3849Z" fill="black" fill-opacity="0.8"/>
<path d="M109.775 11.883V16.4191H94.8745V11.883H109.775ZM96.6194 0.387701V28.6123H90.7376V0.387701H96.6194ZM113.971 0.387701V28.6123H108.109V0.387701H113.971Z" fill="black" fill-opacity="0.8"/>
<path d="M138.243 24.0762V28.6123H123.049V24.0762H138.243ZM124.97 0.387701V28.6123H119.088V0.387701H124.97ZM136.263 11.883V16.3028H123.049V11.883H136.263ZM138.224 0.387701V4.94318H123.049V0.387701H138.224Z" fill="black" fill-opacity="0.8"/>
<path d="M154.36 0.387701H159.34L166.672 21.1103L174.005 0.387701H178.985L168.672 28.6123H164.673L154.36 0.387701ZM151.674 0.387701H156.634L157.536 20.5869V28.6123H151.674V0.387701ZM176.711 0.387701H181.691V28.6123H175.809V20.5869L176.711 0.387701Z" fill="black" fill-opacity="0.8"/>
<path d="M198.807 5.21457L191.043 28.6123H184.789L195.396 0.387701H199.376L198.807 5.21457ZM205.257 28.6123L197.474 5.21457L196.846 0.387701H200.866L211.531 28.6123H205.257ZM204.905 18.1056V22.6611H189.827V18.1056H204.905Z" fill="black" fill-opacity="0.8"/>
<path d="M225.295 18.5515H218.021V14.0154H225.295C226.419 14.0154 227.334 13.8344 228.04 13.4726C228.746 13.0978 229.262 12.5809 229.589 11.9218C229.916 11.2627 230.079 10.5196 230.079 9.69251C230.079 8.8525 229.916 8.07063 229.589 7.34693C229.262 6.62322 228.746 6.04167 228.04 5.60227C227.334 5.16288 226.419 4.94318 225.295 4.94318H220.06V28.6123H214.178V0.387701H225.295C227.53 0.387701 229.445 0.788324 231.04 1.58957C232.647 2.3779 233.876 3.46992 234.726 4.86564C235.575 6.26136 236 7.8574 236 9.65374C236 11.4759 235.575 13.0526 234.726 14.3837C233.876 15.7148 232.647 16.7422 231.04 17.4659C229.445 18.1896 227.53 18.5515 225.295 18.5515Z" fill="black" fill-opacity="0.8"/>
</svg>
