<svg width="current" height="current" viewBox="0 0 64 64" fill="none" xmlns="http://www.w3.org/2000/svg">
<path d="M19.4325 43.8339L6.80874 50.5559L32.0562 64L57.3037 50.5559L44.68 43.8339L32.0562 50.5559L19.4325 43.8339Z" fill="black" fill-opacity="0.8"/>
<path d="M23.958 41.9133L32.0562 37.592L40.1544 41.9133L32.0562 46.2346L23.958 41.9133Z" fill="black" fill-opacity="0.8"/>
<path d="M3.45722 46.8361C0.973526 41.8972 -0.206868 36.397 0.029685 30.865C0.266238 25.333 1.91177 19.9555 4.80786 15.2503C7.70395 10.5451 11.7531 6.67061 16.5653 3.99986C21.3776 1.32912 26.791 -0.0479356 32.2844 0.00127407C37.7777 0.0504837 43.166 1.5243 47.9304 4.28083C52.6949 7.03737 56.675 10.9838 59.4877 15.7401C62.3004 20.4965 63.8508 25.9026 63.9898 31.4379C64.1287 36.9733 62.8515 42.4515 60.2811 47.3451L42.654 37.939C43.6223 36.0955 44.1035 34.0317 44.0511 31.9464C43.9988 29.8612 43.4147 27.8246 42.3551 26.0328C41.2955 24.241 39.7961 22.7543 38.0013 21.7159C36.2064 20.6775 34.1766 20.1222 32.1071 20.1037C30.0377 20.0852 27.9984 20.6039 26.1855 21.6101C24.3726 22.6162 22.8472 24.0758 21.7562 25.8483C20.6652 27.6208 20.0453 29.6466 19.9562 31.7306C19.8671 33.8146 20.3118 35.8866 21.2474 37.7472L3.45722 46.8361Z" fill="black" fill-opacity="0.8"/>
</svg>
