<svg width="current" height="current" viewBox="0 0 14 14" fill="current" xmlns="http://www.w3.org/2000/svg">
<path fill="current" fill-rule="evenodd" clip-rule="evenodd" d="M7.00005 12.0555C9.79216 12.0555 12.0556 9.7921 12.0556 6.99999C12.0556 4.20789 9.79216 1.94444 7.00005 1.94444C4.20795 1.94444 1.9445 4.20789 1.9445 6.99999C1.9445 9.7921 4.20795 12.0555 7.00005 12.0555ZM7.00005 13.2222C10.4365 13.2222 13.2223 10.4364 13.2223 6.99999C13.2223 3.56356 10.4365 0.777771 7.00005 0.777771C3.56362 0.777771 0.777832 3.56356 0.777832 6.99999C0.777832 10.4364 3.56362 13.2222 7.00005 13.2222Z"/>
<path fill="current" fill-rule="evenodd" clip-rule="evenodd" d="M7.00011 8.16665C7.64444 8.16665 8.16678 7.64432 8.16678 6.99999C8.16678 6.35565 7.64444 5.83332 7.00011 5.83332C6.35578 5.83332 5.83344 6.35565 5.83344 6.99999C5.83344 7.64432 6.35578 8.16665 7.00011 8.16665ZM7.00011 8.94443C8.074 8.94443 8.94455 8.07387 8.94455 6.99999C8.94455 5.9261 8.074 5.05554 7.00011 5.05554C5.92622 5.05554 5.05566 5.9261 5.05566 6.99999C5.05566 8.07387 5.92622 8.94443 7.00011 8.94443Z"/>
<path fill="current" d="M7.77772 7.00001C7.77772 7.42956 7.4295 7.77778 6.99995 7.77778C6.57039 7.77778 6.22217 7.42956 6.22217 7.00001C6.22217 6.57045 6.57039 6.22223 6.99995 6.22223C7.4295 6.22223 7.77772 6.57045 7.77772 7.00001Z"/>
</svg>
