<svg width="current" height="current" viewBox="0 0 43 15" xmlns="http://www.w3.org/2000/svg">
<path fill="current" d="M1.60742 0.78125H4.08789L7.74023 11.2207L11.3926 0.78125H13.873L8.73633 15H6.74414L1.60742 0.78125ZM0.269531 0.78125H2.74023L3.18945 10.957V15H0.269531V0.78125ZM12.7402 0.78125H15.2207V15H12.291V10.957L12.7402 0.78125ZM23.7461 3.21289L19.8789 15H16.7637L22.0469 0.78125H24.0293L23.7461 3.21289ZM26.959 15L23.082 3.21289L22.7695 0.78125H24.7715L30.084 15H26.959ZM26.7832 9.70703V12.002H19.2734V9.70703H26.7832ZM36.9395 9.93164H33.3164V7.64648H36.9395C37.4993 7.64648 37.9551 7.55534 38.3066 7.37305C38.6582 7.18424 38.9154 6.92383 39.0781 6.5918C39.2409 6.25977 39.3223 5.88542 39.3223 5.46875C39.3223 5.04557 39.2409 4.65169 39.0781 4.28711C38.9154 3.92253 38.6582 3.62956 38.3066 3.4082C37.9551 3.18685 37.4993 3.07617 36.9395 3.07617H34.332V15H31.4023V0.78125H36.9395C38.0527 0.78125 39.0065 0.983073 39.8008 1.38672C40.6016 1.78385 41.2135 2.33398 41.6367 3.03711C42.0599 3.74023 42.2715 4.54427 42.2715 5.44922C42.2715 6.36719 42.0599 7.16146 41.6367 7.83203C41.2135 8.5026 40.6016 9.02018 39.8008 9.38477C39.0065 9.74935 38.0527 9.93164 36.9395 9.93164Z"/>
</svg>
