<svg width="current" height="current" viewBox="0 0 14 14" fill="none" xmlns="http://www.w3.org/2000/svg">
<g clip-path="url(#clip0_123_11077)">
<rect width="14" height="14" fill="white" fill-opacity="0.01"/>
<g clip-path="url(#clip1_123_11077)">
<path d="M13.2125 12.3537L9.15469 8.29589C9.78438 7.48182 10.125 6.48651 10.125 5.43964C10.125 4.18651 9.63594 3.01151 8.75156 2.12557C7.86719 1.23964 6.68906 0.752136 5.4375 0.752136C4.18594 0.752136 3.00781 1.2412 2.12344 2.12557C1.2375 3.00995 0.75 4.18651 0.75 5.43964C0.75 6.6912 1.23906 7.86932 2.12344 8.7537C3.00781 9.63964 4.18438 10.1271 5.4375 10.1271C6.48438 10.1271 7.47813 9.78651 8.29219 9.15839L12.35 13.2146C12.3619 13.2265 12.376 13.236 12.3916 13.2424C12.4071 13.2489 12.4238 13.2522 12.4406 13.2522C12.4575 13.2522 12.4741 13.2489 12.4897 13.2424C12.5052 13.236 12.5194 13.2265 12.5312 13.2146L13.2125 12.5349C13.2244 12.5231 13.2338 12.5089 13.2403 12.4934C13.2467 12.4778 13.2501 12.4612 13.2501 12.4443C13.2501 12.4275 13.2467 12.4108 13.2403 12.3953C13.2338 12.3797 13.2244 12.3656 13.2125 12.3537ZM7.9125 7.91464C7.25 8.57557 6.37187 8.93964 5.4375 8.93964C4.50312 8.93964 3.625 8.57557 2.9625 7.91464C2.30156 7.25214 1.9375 6.37401 1.9375 5.43964C1.9375 4.50526 2.30156 3.62557 2.9625 2.96464C3.625 2.3037 4.50312 1.93964 5.4375 1.93964C6.37187 1.93964 7.25156 2.30214 7.9125 2.96464C8.57344 3.62714 8.9375 4.50526 8.9375 5.43964C8.9375 6.37401 8.57344 7.2537 7.9125 7.91464Z" fill="current"/>
</g>
</g>
<defs>
<clipPath id="clip0_123_11077">
<rect width="14" height="14" fill="white"/>
</clipPath>
<clipPath id="clip1_123_11077">
<rect width="14" height="14" fill="white"/>
</clipPath>
</defs>
</svg>
